<svg xmlns="http://www.w3.org/2000/svg" viewBox="0 0 64 64"><g data-name="09-Brazil"><path fill="#1f3d8f" d="M32 22a10 10 0 109.82 11.86A9.463 9.463 0 0042 32a10 10 0 00-10-10z"/><path fill="#ffd45d" d="M41.82 33.86A9.463 9.463 0 0042 32a10.032 10.032 0 10-.18 1.86zM59 32L32 49 5 32l27-17z"/><path fill="#009b3a" d="M63 5v54a4 4 0 01-4 4H5a4 4 0 01-4-4V5a4 4 0 014-4h54a4 4 0 014 4zM32 49l27-17-27-17L5 32z"/><path fill="#162a63" d="M32 42a9.955 9.955 0 007.127-3H24.866A9.968 9.968 0 0032 42z"/><path fill="#ffb844" d="M32 49l27-17-1.226-.772A21.948 21.948 0 0141 39h-1.873a9.974 9.974 0 01-14.261 0H23a21.948 21.948 0 01-16.774-7.772L5 32z"/><path fill="#00802f" d="M59 32L32 49 5 32l1.226-.772A21.908 21.908 0 011 17v42a4 4 0 004 4h54a4 4 0 004-4V17a21.908 21.908 0 01-5.226 14.228z"/><path fill="#e9edf5" d="M41.966 32.711A26.664 26.664 0 0022.9 27.878a9.87 9.87 0 00-.416 1.052 10.194 10.194 0 00-.267 1.049c.131-.023.261-.04.414-.06a24.468 24.468 0 0118.592 4.74l.144.112a.979.979 0 00.2.114 10.033 10.033 0 00.256-1.025 9.2 9.2 0 00.143-1.149z"/><path fill="#006927" d="M59 59H5a4 4 0 01-4-4v4a4 4 0 004 4h54a4 4 0 004-4v-4a4 4 0 01-4 4z"/><path fill="#00ba46" d="M59 1H5a4 4 0 00-4 4v4a4 4 0 014-4h54a4 4 0 014 4V5a4 4 0 00-4-4z"/></g></svg>