<svg xmlns="http://www.w3.org/2000/svg" viewBox="0 0 64 64"><g data-name="26-China"><rect width="62" height="62" x="1" y="1" fill="#e21743" rx="4"/><path fill="#c7002b" d="M23 39A22 22 0 011 17v42a4 4 0 004 4h54a4 4 0 004-4V17a22 22 0 01-22 22z"/><path fill="#960e2c" d="M59 59H5a4 4 0 01-4-4v4a4 4 0 004 4h54a4 4 0 004-4v-4a4 4 0 01-4 4z"/><path fill="#ea5172" d="M59 1H5a4 4 0 00-4 4v4a4 4 0 014-4h54a4 4 0 014 4V5a4 4 0 00-4-4z"/><path fill="#ffb844" d="M23 14l-4 4 2 6-6-4-6 4 2-6-4-4h6l2-6 2 6h6zM41 21l-1.5 1.75.538 2.238-2.25-1.5L36 25l.5-2.25L35 21h2l1-2 1 2h2zM35 29.904L33 31v2l-1.462-2.012-2.538.648 1.396-1.767-.907-1.784 2.067.682L33 27v2l2 .904zM35 7l-1.874.787L32.943 10l-1.412-2.169L29 8.216l1.497-1.618-.754-1.872 1.972.892L33.212 4l-.183 2.213L35 7zM41 14.458l-2.037-.275L37.719 16l-.228-2.511L35 12.656l2.15-.702.225-1.954 1.359 1.672 2.15-.702-1.243 1.816L41 14.458z"/></g></svg>