<svg xmlns="http://www.w3.org/2000/svg" viewBox="0 0 64 64"><g data-name="06-Germany"><path fill="#23272b" d="M63 5v16H1V5a4 4 0 014-4h54a4 4 0 014 4z"/><path fill="#e21743" d="M1 21h62v22H1z"/><path fill="#ffce54" d="M63 43v16a4 4 0 01-4 4H5a4 4 0 01-4-4V43z"/><path fill="#23272b" d="M1 17v4h.37A22.058 22.058 0 011 17zm62 4v-4a22.058 22.058 0 01-.37 4z"/><path fill="#c7002b" d="M41 39H23A22 22 0 011.37 21H1v22h62V21h-.37A22 22 0 0141 39z"/><path fill="#ffb844" d="M1 59a4 4 0 004 4h54a4 4 0 004-4V43H1z"/><path fill="#d79d44" d="M59 59H5a4 4 0 01-4-4v4a4 4 0 004 4h54a4 4 0 004-4v-4a4 4 0 01-4 4z"/><path fill="#555a66" d="M59 1H5a4 4 0 00-4 4v4a4 4 0 014-4h54a4 4 0 014 4V5a4 4 0 00-4-4z"/><path fill="none" stroke="#000" stroke-linejoin="round" stroke-width="2" d="M55 63H5a4 4 0 01-4-4V5a4 4 0 014-4h2m6 0h46a4 4 0 014 4v54a4 4 0 01-4 4h-2M9 1h2M7 1h0M56 21H1M63 21h-5M8 43h55M1 43h5"/></g></svg>